<svg xmlns="http://www.w3.org/2000/svg" viewBox="0 0 270 133">
    <defs>
        <style>.cls-1{fill:#FFF;}.cls-2{fill:#FFF;}.cls-3{fill:none;}</style>
        <!-- <style>.cls-1{fill:#4d5554;}.cls-2{fill:#13b5c4;}.cls-3{fill:none;}</style> -->
    </defs>
    <title>logo-ica</title>
    <g id="Capa_2" data-name="Capa 2">
        <g id="Capa_1-2" data-name="Capa 1">
            <path class="cls-1" d="M181.12,85.31a5,5,0,0,0-3.44,1.38l-.05,0,0,.06h0a15,15,0,1,1,.09-21.34l0,0a5,5,0,0,0,7.1-7s0,0,0,0l-.13-.13h0a24.95,24.95,0,1,0-.06,35.6l.12-.12a5,5,0,0,0-3.56-8.49Z"/>
            <path class="cls-1" d="M132.14,51.14a5,5,0,0,0-5,5V96.05a5,5,0,0,0,10,0V56.13A5,5,0,0,0,132.14,51.14Z"/>
            <path class="cls-1" d="M226.94,56a24.92,24.92,0,1,0,0,39.91V96a5,5,0,1,0,10,0V76A24.87,24.87,0,0,0,226.94,56ZM212,90.93A15,15,0,1,1,226.94,75.1v1.76A14.93,14.93,0,0,1,212,90.93Z"/>
            <path class="cls-1" d="M137,40.34a4.49,4.49,0,0,1-.39,1.86,5.08,5.08,0,0,1-1,1.53A5.26,5.26,0,0,1,134,44.78a4.55,4.55,0,0,1-1.88.39,5.35,5.35,0,0,1-2.14-.48.75.75,0,0,1-.24-.32.39.39,0,0,1,0-.36.46.46,0,0,1,.28-.28.42.42,0,0,1,.39.05,3.58,3.58,0,0,0,1.68.38A3.84,3.84,0,0,0,136,40.34V39.08a4.61,4.61,0,0,1-3.85,2,4.53,4.53,0,0,1-1.9-.4,4.59,4.59,0,0,1-1.54-1.09,4.79,4.79,0,0,1-1-1.63,5.31,5.31,0,0,1-.37-2,5.18,5.18,0,0,1,.37-2,5.06,5.06,0,0,1,1-1.62,4.94,4.94,0,0,1,1.54-1.11,4.4,4.4,0,0,1,1.9-.42,4.49,4.49,0,0,1,2.19.56A5.08,5.08,0,0,1,136,32.88V31.36a.51.51,0,0,1,.14-.34.49.49,0,0,1,.38-.16.44.44,0,0,1,.34.16.48.48,0,0,1,.15.34Zm-2.15-1.43A4.11,4.11,0,0,0,136,36a4,4,0,0,0-1.14-2.9,3.65,3.65,0,0,0-5.41,0,4.07,4.07,0,0,0-1.12,2.9,4.13,4.13,0,0,0,1.12,2.94,3.65,3.65,0,0,0,5.41,0Z"/>
            <path class="cls-1" d="M141.89,31.39a.51.51,0,0,1,.53-.51.46.46,0,0,1,.33.15.49.49,0,0,1,.15.36v2.27a1.74,1.74,0,0,1,.15-.26,6.82,6.82,0,0,1,1.59-1.71,4,4,0,0,1,2.52-.81.49.49,0,0,1,.35.15.46.46,0,0,1,.16.36.43.43,0,0,1-.16.35.49.49,0,0,1-.35.15,3.06,3.06,0,0,0-1.73.49,5.44,5.44,0,0,0-1.25,1.19,6.8,6.8,0,0,0-.83,1.39c-.2.46-.34.8-.41,1s-.06.12,0,.17v4.51a.47.47,0,0,1-.15.37.49.49,0,0,1-.33.14A.52.52,0,0,1,142,41a.47.47,0,0,1-.15-.37Z"/>
            <path class="cls-1" d="M150.9,31.34a.45.45,0,0,1,.15-.35.49.49,0,0,1,.36-.15.52.52,0,0,1,.35.15.45.45,0,0,1,.15.35V37a3.1,3.1,0,0,0,.92,2.26,3,3,0,0,0,2.24.94,3.21,3.21,0,0,0,3.19-3.2V31.34a.43.43,0,0,1,.16-.35.48.48,0,0,1,.34-.15.51.51,0,0,1,.37.15.43.43,0,0,1,.16.35V37a4.2,4.2,0,0,1-4.22,4.21,4,4,0,0,1-3-1.23,4.11,4.11,0,0,1-1.21-3Z"/>
            <path class="cls-1" d="M164,36.18V31.36a.51.51,0,0,1,.5-.5.5.5,0,0,1,.37.16.49.49,0,0,1,.16.34v1.5a4.92,4.92,0,0,1,1.68-1.44,4.6,4.6,0,0,1,2.22-.56,4.72,4.72,0,0,1,1.94.41,5.11,5.11,0,0,1,1.57,1.1A5.37,5.37,0,0,1,173.51,34a4.9,4.9,0,0,1,.4,2,5,5,0,0,1-.4,2,5.07,5.07,0,0,1-1.07,1.63,4.92,4.92,0,0,1-1.57,1.09,4.87,4.87,0,0,1-4.16-.14A4.79,4.79,0,0,1,165,39.08V45a.51.51,0,0,1-.16.35.53.53,0,0,1-.37.15.5.5,0,0,1-.5-.5Zm1-.21a4.07,4.07,0,0,0,1.15,2.91,3.7,3.7,0,0,0,2.75,1.21,3.75,3.75,0,0,0,2.8-1.21A4.07,4.07,0,0,0,172.88,36a4,4,0,0,0-1.15-2.89,3.76,3.76,0,0,0-2.8-1.19A3.7,3.7,0,0,0,166.22,33,4,4,0,0,0,165,35.8Z"/>
            <path class="cls-1" d="M177.76,34a5.19,5.19,0,0,1,2.59-2.76,4.44,4.44,0,0,1,1.91-.42,4.35,4.35,0,0,1,1.89.42,5.2,5.2,0,0,1,1.54,1.13A5.31,5.31,0,0,1,186.74,34a5.09,5.09,0,0,1,.39,2,5.22,5.22,0,0,1-1.44,3.63,5.13,5.13,0,0,1-1.54,1.11,4.49,4.49,0,0,1-1.89.41,4.58,4.58,0,0,1-1.91-.41A5.09,5.09,0,0,1,177.76,38a5.4,5.4,0,0,1-.38-2A5.27,5.27,0,0,1,177.76,34Zm1.77,4.9a3.67,3.67,0,0,0,5.45,0,4.34,4.34,0,0,0,0-5.86,3.63,3.63,0,0,0-5.45,0,4.34,4.34,0,0,0,0,5.86Z"/>
            <path class="cls-2" d="M107.31,66.24a40.66,40.66,0,0,1-23.43,36.83l-.17.08-.12,0h0a2.4,2.4,0,0,1-.8.14,2.36,2.36,0,0,1-2-3.67A53,53,0,0,0,89.73,70.9,52.21,52.21,0,0,0,69.82,28.71a1.64,1.64,0,0,1,1-2.91H71A40.67,40.67,0,0,1,107.31,66.24Z"/>
            <path class="cls-2" d="M80.71,79.11A47.55,47.55,0,0,0,54.34,39.25L54,39.09l-.44-.2a17.43,17.43,0,0,0-21.8,6.43,16.08,16.08,0,0,0-1,1.71l-.09.19a40.66,40.66,0,0,0,25.77,58.4h0a17.67,17.67,0,0,0,2.54.57h0a17.41,17.41,0,0,0,2.63.19A18.06,18.06,0,0,0,78.76,94.2a.19.19,0,0,0,0-.07c.07-.21.14-.42.2-.64s.13-.42.18-.64a.08.08,0,0,0,0,0,.06.06,0,0,0,0,0A42.41,42.41,0,0,0,80.71,79.11Z"/>
            <rect class="cls-3" width="270" height="133"/>
        </g>
    </g>
</svg>